<?xml version="1.0" standalone="no"?>
<!DOCTYPE svg PUBLIC "-//W3C//DTD SVG 20010904//EN"
 "http://www.w3.org/TR/2001/REC-SVG-20010904/DTD/svg10.dtd">
<svg version="1.0" xmlns="http://www.w3.org/2000/svg"
 width="6074.000000pt" height="873.000000pt" viewBox="0 0 6074.000000 873.000000"
 preserveAspectRatio="xMidYMid meet">

<g transform="translate(0.000000,873.000000) scale(0.100000,-0.100000)"
fill="#000000" stroke="none">
<path d="M14273 8373 c-1898 -2 -2343 -5 -2343 -16 0 -49 55 -334 85 -436 69
-240 187 -505 332 -746 226 -376 453 -641 883 -1031 91 -82 247 -228 348 -324
101 -96 225 -214 275 -261 l91 -86 -359 -240 c-582 -389 -765 -536 -1189 -953
-365 -360 -663 -688 -836 -919 -185 -247 -405 -653 -537 -986 -170 -432 -270
-823 -348 -1370 -20 -137 -40 -263 -44 -280 l-8 -30 -7 25 c-18 70 -243 1848
-501 3965 -218 1785 -431 3478 -456 3619 l-11 66 -1009 0 -1010 0 6 -47 c45
-374 59 -468 176 -1188 109 -668 161 -1034 161 -1135 1 -66 -5 -102 -26 -163
-100 -296 -381 -683 -801 -1102 -295 -296 -800 -731 -973 -839 l-42 -26 -10
24 c-5 14 -16 74 -25 133 -26 188 -280 2412 -375 3298 -53 497 -93 839 -111
968 l-11 78 -1013 -3 c-558 -2 -1016 -6 -1020 -10 -4 -4 25 -160 64 -346 122
-582 168 -903 143 -1018 -14 -69 -60 -145 -157 -259 -42 -50 -356 -371 -699
-715 -342 -344 -687 -695 -766 -780 -853 -923 -1311 -1643 -1605 -2525 -170
-510 -250 -923 -262 -1361 -10 -367 19 -610 118 -988 l11 -39 771 7 c799 7
1225 19 1318 36 91 18 91 4 16 302 -77 307 -81 324 -106 528 -37 295 -46 471
-45 925 0 548 16 728 100 1130 164 786 463 1529 832 2065 189 276 511 652 594
696 25 13 27 13 32 -14 22 -105 70 -542 176 -1602 208 -2079 364 -3592 400
-3884 11 -88 20 -166 20 -173 0 -26 1884 -14 1954 13 12 5 16 19 16 56 0 68
-38 408 -121 1082 -85 700 -146 1246 -153 1391 l-6 110 201 145 c335 241 615
486 969 846 276 281 455 490 580 679 73 110 109 155 125 155 9 0 15 -24 19
-77 62 -709 322 -3298 376 -3733 10 -85 29 -268 41 -406 l23 -251 490 -6 c270
-4 1260 -10 2199 -14 l1708 -6 -5 34 c-46 271 -60 583 -53 1189 8 688 21 851
88 1120 113 455 337 987 589 1405 172 285 441 613 548 669 42 22 59 20 76 -6
61 -93 338 -2031 405 -2833 48 -563 91 -1255 91 -1444 l0 -131 713 0 c681 0
1061 10 1080 29 5 5 -19 197 -52 427 -33 231 -106 781 -161 1224 -164 1316
-222 1726 -300 2126 -42 215 -47 264 -28 264 16 0 276 -136 387 -203 191 -115
356 -247 597 -478 383 -365 496 -513 684 -894 220 -446 350 -808 434 -1212 60
-288 82 -482 112 -978 9 -154 18 -281 19 -283 4 -4 1415 -21 1823 -22 l372 0
0 23 c0 55 -43 448 -66 597 -81 533 -247 1054 -474 1487 -309 587 -721 1066
-1316 1528 -247 192 -646 471 -958 670 -294 187 -421 272 -474 314 l-53 42 22
30 c12 17 132 144 268 283 265 271 417 443 656 741 504 630 980 1356 1189
1815 26 58 70 152 98 210 28 58 54 118 59 133 29 99 -90 136 -496 157 -267 13
-1705 17 -4542 13z m2562 -858 c72 -8 175 -26 230 -39 208 -50 311 -105 400
-214 114 -137 141 -230 130 -437 -19 -351 -90 -543 -328 -877 -133 -187 -539
-557 -700 -640 -34 -17 -43 -18 -70 -7 -84 35 -687 488 -1101 828 -319 261
-431 373 -638 633 -162 202 -318 436 -318 474 0 16 82 34 345 78 378 63 1161
169 1515 205 140 14 396 12 535 -4z"/>
<path d="M24615 8363 c-214 -4 -198 5 -190 -106 9 -135 43 -484 60 -617 8 -63
25 -204 39 -313 42 -319 39 -341 -75 -572 -139 -284 -301 -513 -1155 -1635
-703 -924 -1105 -1579 -1404 -2284 -223 -528 -356 -964 -475 -1560 -74 -366
-96 -526 -102 -749 l-6 -197 914 0 c825 0 1330 10 1381 26 25 8 24 59 -8 241
-14 81 -30 175 -35 207 -45 267 -67 841 -50 1328 18 555 49 877 117 1221 186
944 566 1847 993 2359 86 102 127 141 145 135 23 -8 36 -88 75 -488 114 -1145
241 -2306 386 -3524 63 -528 126 -1070 141 -1205 15 -135 32 -250 38 -257 30
-33 149 -38 991 -38 843 0 958 4 992 38 14 14 18 -29 -92 992 -144 1328 -155
1453 -141 1509 11 43 72 102 161 156 275 166 799 634 1210 1080 179 194 235
260 413 488 130 165 184 223 197 210 3 -3 14 -112 25 -244 133 -1635 364
-4034 405 -4211 l5 -23 388 0 c420 1 1913 18 1917 22 9 12 -49 541 -156 1418
-38 316 -115 958 -170 1425 -55 468 -140 1174 -189 1570 -126 1015 -243 2087
-340 3110 -22 237 -43 445 -45 463 l-6 32 -1101 0 -1101 0 6 -122 c3 -68 19
-195 36 -283 66 -355 180 -1334 207 -1770 8 -139 -8 -268 -45 -356 -57 -137
-270 -471 -453 -714 -140 -185 -303 -368 -479 -540 -318 -309 -999 -840 -999
-779 0 3 -7 60 -15 127 -18 146 -111 1130 -235 2472 -99 1078 -152 1619 -178
1825 l-17 135 -915 0 c-503 0 -982 -1 -1065 -2z"/>
<path d="M35425 8348 c2 -13 18 -124 35 -248 17 -124 46 -333 66 -465 46 -318
64 -486 64 -621 l0 -112 -55 -76 c-103 -143 -290 -360 -610 -706 -996 -1077
-1548 -1811 -1930 -2565 -173 -343 -315 -701 -419 -1061 -187 -648 -241 -1187
-191 -1897 l19 -269 1016 6 c945 5 1137 10 1156 29 11 10 -10 131 -56 330 -21
95 -46 215 -54 267 -155 962 -6 2456 350 3518 135 403 268 669 534 1068 182
273 334 449 365 424 27 -22 60 -267 165 -1210 38 -344 103 -949 145 -1345 41
-396 89 -841 105 -990 16 -148 57 -544 90 -880 61 -615 116 -1122 126 -1162 3
-12 13 -24 21 -27 74 -29 1913 -35 1946 -7 22 18 21 54 -3 203 -25 157 -88
668 -140 1143 -22 204 -59 528 -81 720 -46 391 -47 472 -9 545 32 62 110 141
303 308 491 421 913 871 1219 1299 l103 144 17 -88 c23 -119 64 -499 153
-1428 172 -1779 279 -2803 294 -2818 37 -37 315 -47 1419 -47 540 0 982 2 982
4 0 2 -11 59 -25 127 -125 606 -741 4611 -1121 7288 l-89 624 -785 -6 c-798
-7 -1237 -20 -1255 -38 -13 -13 14 -246 86 -744 171 -1172 202 -1428 203
-1660 1 -208 4 -198 -114 -395 -236 -393 -689 -926 -1080 -1269 -85 -75 -207
-186 -271 -247 -117 -113 -154 -141 -163 -126 -27 43 -258 2188 -466 4327 -6
61 -13 120 -16 133 l-4 22 -1025 0 -1025 0 5 -22z"/>
<path d="M54140 8358 c0 -7 7 -35 15 -62 60 -197 154 -805 185 -1201 16 -200
8 -619 -14 -737 -65 -351 -246 -637 -796 -1263 -68 -77 -214 -241 -324 -364
-605 -674 -1117 -1375 -1460 -1998 -239 -435 -462 -1066 -576 -1633 -50 -248
-70 -425 -70 -617 l0 -153 1110 0 1111 0 -6 33 c-14 81 -45 387 -55 532 -55
848 93 1849 381 2572 84 213 254 535 471 898 110 183 306 480 343 518 82 85
35 -106 -76 -314 -92 -174 -141 -281 -146 -320 -8 -55 20 -125 157 -394 174
-342 275 -614 365 -980 128 -520 182 -998 210 -1855 8 -256 18 -516 21 -577
l6 -113 895 0 895 0 -5 23 c-12 47 -39 219 -107 682 -147 993 -264 1607 -410
2140 -33 121 -63 236 -66 255 -7 43 -10 42 196 110 202 66 659 264 962 416
l131 66 19 -24 c43 -56 352 -684 465 -947 162 -377 316 -1017 382 -1586 35
-301 43 -480 36 -806 l-8 -307 304 -7 c167 -4 690 -8 1161 -9 795 -1 859 0
874 16 73 72 -108 1025 -366 1933 -318 1117 -631 1720 -1538 2970 -80 110
-353 477 -607 815 -862 1150 -1245 1714 -1449 2132 l-81 168 -1267 0 c-1008 0
-1268 -3 -1268 -12z m1995 -2500 c50 -51 163 -183 251 -293 89 -110 250 -308
359 -440 223 -271 263 -326 272 -379 10 -61 -41 -99 -311 -230 -262 -128 -337
-160 -428 -181 -129 -30 -707 -55 -835 -36 -102 15 -147 32 -338 126 -193 95
-240 132 -238 191 2 68 146 285 362 542 330 394 730 789 801 791 8 1 55 -41
105 -91z"/>
<path d="M49075 8323 c-365 -4 -840 -23 -958 -38 -61 -8 -114 -15 -117 -15 -4
0 8 -89 26 -197 53 -327 74 -759 74 -1564 l0 -456 -108 -104 c-149 -144 -389
-345 -932 -780 -255 -205 -541 -436 -635 -513 -93 -77 -235 -191 -315 -253
-123 -96 -146 -110 -154 -96 -5 9 -12 400 -17 927 -5 501 -13 1114 -18 1361
-6 248 -16 730 -23 1073 l-12 623 -940 -4 c-921 -4 -999 -6 -1028 -35 -7 -7
-7 -36 1 -89 35 -247 98 -1246 136 -2163 30 -735 38 -1208 38 -2270 0 -1758
-35 -2757 -120 -3394 l-6 -49 829 6 c854 8 1163 17 1230 40 l39 12 -1 60 c0
33 -10 143 -22 245 -65 553 -93 1045 -99 1728 l-5 582 138 146 c199 210 436
421 954 849 369 304 664 555 875 743 98 89 180 160 181 159 1 -1 10 -398 20
-882 26 -1235 27 -3103 2 -3424 -10 -124 -18 -233 -18 -244 0 -18 21 -19 913
-14 920 5 1075 11 1106 42 26 26 25 173 -3 460 -100 1009 -156 2879 -142 4745
6 920 15 1306 46 2130 11 283 20 548 20 588 l0 72 -367 -2 c-203 -2 -467 -4
-588 -5z"/>
</g>
</svg>
